<svg xmlns="http://www.w3.org/2000/svg" width="1200" height="800" viewBox="0 0 1200 800" role="img" aria-labelledby="title desc">
  <title id="title">NullID website preview</title>
  <desc id="desc">Stylized browser preview for NullID security platform website.</desc>
  <defs>
    <linearGradient id="bg" x1="0" y1="0" x2="1" y2="1">
      <stop offset="0%" stop-color="#0b1220"/>
      <stop offset="60%" stop-color="#111a2d"/>
      <stop offset="100%" stop-color="#1a1f36"/>
    </linearGradient>
    <linearGradient id="card" x1="0" y1="0" x2="1" y2="1">
      <stop offset="0%" stop-color="#111b30"/>
      <stop offset="100%" stop-color="#0d1525"/>
    </linearGradient>
    <linearGradient id="accent" x1="0" y1="0" x2="1" y2="0">
      <stop offset="0%" stop-color="#f6b31d"/>
      <stop offset="100%" stop-color="#f4845f"/>
    </linearGradient>
    <filter id="soft" x="-20%" y="-20%" width="140%" height="140%">
      <feGaussianBlur stdDeviation="24"/>
    </filter>
  </defs>

  <rect width="1200" height="800" fill="url(#bg)"/>
  <circle cx="180" cy="660" r="170" fill="#f6b31d" opacity="0.18" filter="url(#soft)"/>
  <circle cx="980" cy="160" r="180" fill="#5fa8ff" opacity="0.16" filter="url(#soft)"/>

  <rect x="70" y="60" width="1060" height="680" rx="28" fill="#0a1020" stroke="#2a3650" stroke-width="2"/>
  <rect x="70" y="60" width="1060" height="56" rx="28" fill="#141d31"/>
  <circle cx="108" cy="88" r="7" fill="#ff7f7f"/>
  <circle cx="132" cy="88" r="7" fill="#ffd77f"/>
  <circle cx="156" cy="88" r="7" fill="#91e8b0"/>
  <rect x="206" y="75" width="540" height="26" rx="13" fill="#202a3f"/>
  <text x="224" y="93" fill="#d9e5ff" font-family="'IBM Plex Sans', Arial, sans-serif" font-size="13">https://nullid.kamranboroomand.ir</text>

  <rect x="104" y="152" width="992" height="552" rx="22" fill="url(#card)" stroke="#273550"/>

  <rect x="136" y="190" width="166" height="36" rx="18" fill="#243351"/>
  <text x="168" y="213" fill="#f6b31d" font-family="'IBM Plex Sans', Arial, sans-serif" font-size="14" font-weight="700" letter-spacing="1.2">NULLID</text>

  <text x="136" y="282" fill="#f8fbff" font-family="'Space Grotesk', 'IBM Plex Sans', Arial, sans-serif" font-size="58" font-weight="700">Privacy-First Identity</text>
  <text x="136" y="340" fill="#f8fbff" font-family="'Space Grotesk', 'IBM Plex Sans', Arial, sans-serif" font-size="58" font-weight="700">and Access Layer</text>

  <text x="136" y="388" fill="#a8b7d6" font-family="'IBM Plex Sans', Arial, sans-serif" font-size="24">Secure communication, strict access policy, and reliable operational controls.</text>

  <rect x="136" y="430" width="250" height="52" rx="14" fill="url(#accent)"/>
  <text x="177" y="463" fill="#111827" font-family="'IBM Plex Sans', Arial, sans-serif" font-size="20" font-weight="700">Explore Platform</text>

  <rect x="410" y="430" width="220" height="52" rx="14" fill="#202c45" stroke="#31425f"/>
  <text x="470" y="463" fill="#d7e3fb" font-family="'IBM Plex Sans', Arial, sans-serif" font-size="20" font-weight="600">GitHub Repo</text>

  <rect x="742" y="218" width="320" height="430" rx="20" fill="#121d31" stroke="#2e3d5c"/>
  <text x="772" y="266" fill="#f6b31d" font-family="'IBM Plex Sans', Arial, sans-serif" font-size="18" font-weight="700">Security Highlights</text>

  <rect x="772" y="294" width="260" height="16" rx="8" fill="#243351"/>
  <rect x="772" y="326" width="220" height="16" rx="8" fill="#243351"/>
  <rect x="772" y="358" width="250" height="16" rx="8" fill="#243351"/>

  <rect x="772" y="416" width="260" height="82" rx="14" fill="#1a2842"/>
  <text x="792" y="448" fill="#d7e3fb" font-family="'IBM Plex Sans', Arial, sans-serif" font-size="20" font-weight="600">Access Controls</text>
  <text x="792" y="474" fill="#9fb0d2" font-family="'IBM Plex Sans', Arial, sans-serif" font-size="16">Role separation and policy</text>

  <rect x="772" y="522" width="260" height="82" rx="14" fill="#1a2842"/>
  <text x="792" y="554" fill="#d7e3fb" font-family="'IBM Plex Sans', Arial, sans-serif" font-size="20" font-weight="600">Operational Reliability</text>
  <text x="792" y="580" fill="#9fb0d2" font-family="'IBM Plex Sans', Arial, sans-serif" font-size="16">Predictable secure flows</text>
</svg>
